# xmcd
#
# Track frame offsets:
#	150
#	13152
#	25067
#	39167
#	54565
#	68257
#	82675
#	96185
#	109217
#	125000
#	138100
#	151430
#	162917
#	175765
#	190387
#	204382
#	216510
#	231620
#	245870
#	261182
#	273917
#	287582
#	300107
#	313175
#
# Disc length: 4327 seconds
#
# Revision: 1
# Processed by: cddbd v1.5.2PL0 Copyright (c) Steve Scherf et al.
# Submitted via: audiograbber 1.83.01
#
DISCID=4d10e518
DTITLE=Various Artist - Memphis Blues
DYEAR=1996
DGENRE=Blues
TTITLE0=Gus Cannon - My Money Never Runs Out
TTITLE1=Beale Street Sheiks - Mr Crump Don't Like it
TTITLE2=Pearl Dickson - Twelve Pound Daddy
TTITLE3=Frank Stokes - 'Taint Nobody's Business If I Do Pt.1
TTITLE4=Tom Dickson - Happy Blues
TTITLE5=Furry Lewis - I Will Turn Your Money Green
TTITLE6=Furry Lewis - Judge Harsh Blues
TTITLE7=Robert Wilkins - Rolling Stone Pt.1
TTITLE8=Robert Wilkins - Rolling Stone Pt.2
TTITLE9=Robert Wilkins - That's No Way To Get Along
TTITLE10=Cannon's Jug Stompers - Walk Right In
TTITLE11=Memphis Jug Band - K.C. Moan
TTITLE12=Memphis Jug Band - Cocaine Habit Blues
TTITLE13=Joe Calicott - Travelling Mama Blues
TTITLE14=Jim Thompkins - Bedside Blues
TTITLE15=Noah Lewis's Jug Band - Ticket Agent Blues
TTITLE16=Jim Jackson - Hesitation Blues
TTITLE17=Memphis Minnie and Kansas Joe  - Can I Do It For You Pt.1
TTITLE18=Memphis Minnie and Her Jug Band - Grandpa And Grandma Blues
TTITLE19=Jack Kelly's South Memphis Jug Band  - Highway No. 61 Blues
TTITLE20=Allen Shaw - Moanin' The Blues
TTITLE21=Yank Rachel - Sugar Farm Blues
TTITLE22='Sleepy' John Estes - Need More Blues
TTITLE23=Little Buddy Doyle - Renewed Love Blues
EXTD=
EXTT0=
EXTT1=
EXTT2=
EXTT3=
EXTT4=
EXTT5=
EXTT6=
EXTT7=
EXTT8=
EXTT9=
EXTT10=
EXTT11=
EXTT12=
EXTT13=
EXTT14=
EXTT15=
EXTT16=
EXTT17=
EXTT18=
EXTT19=
EXTT20=
EXTT21=
EXTT22=
EXTT23=
PLAYORDER=
